# xmcd
#
# Track frame offsets:
#	150
#	25892
#	36770
#	49272
#	66402
#	84120
#	101247
#	118405
#	133900
#	150417
#	165065
#	181777
#	199690
#	214360
#	229100
#	245375
#
# Disc length: 3478 seconds
#
# Revision: 0
# Processed by: cddbd v1.5.2PL0 Copyright (c) Steve Scherf et al.
# Submitted via: VUPlayer 2.49
#
DISCID=d70d9410
DTITLE=Various Artist - Country Music Sampler Vol. 1
DYEAR=1994
DGENRE=Country
TTITLE0=Lyle Lovett - North Dakota
TTITLE1=Dolly Parton Tammy Wynette Loretta Lynn - Silver Threads And Golden Need
TTITLE1=les
TTITLE2=Doug Stone - Wishbone
TTITLE3=Bobby Cryner - Daddy Laid The Blues On Me
TTITLE4=Rodney Crowell - Even Cowgirls Get The Blues
TTITLE5=Joe Diffie - Prop Me Up Beside The Jukebox(If I Die)
TTITLE6=Mary Chapin Carpenter - The Bug
TTITLE7=Sawyer Brown - Boys And Me
TTITLE8=Boy Howdy - She'd Give Anything
TTITLE9=Rick Trevino - Just Enough Rope
TTITLE10=Johnny Cash - Boy Named Sue
TTITLE11=Patti Loveless - Nothin' But The Wheel
TTITLE12=Collin Raye - That Was A River
TTITLE13=Wynonna Judd - Girls With Guitars
TTITLE14=Ricky Van Shelton - Still Got A Couple Of Good Years Left
TTITLE15=Darryl And Don Ellis - 10 Minutes Till
EXTD=
EXTT0=
EXTT1=
EXTT2=
EXTT3=
EXTT4=
EXTT5=
EXTT6=
EXTT7=
EXTT8=
EXTT9=
EXTT10=
EXTT11=
EXTT12=
EXTT13=
EXTT14=
EXTT15=
PLAYORDER=
